<?xml version="1.0" standalone="no"?>
<!DOCTYPE svg PUBLIC "-//W3C//DTD SVG 1.1//EN" "http://www.w3.org/Graphics/SVG/1.1/DTD/svg11.dtd" >
<svg xmlns="http://www.w3.org/2000/svg">
<metadata>Generated by IcoMoon</metadata>
<defs>
<font id="winicons" horiz-adv-x="1024">
<font-face units-per-em="1024" ascent="960" descent="-64" />
<missing-glyph horiz-adv-x="1024" />
<glyph unicode="&#x20;" horiz-adv-x="0" d="" />
<glyph unicode="&#xe900;" glyph-name="uniE900" d="M512 619h-341q-36 0-61-25t-25-61v0-170q0-36 25-61t61-25v0h42v-170q0-18 12.5-30.5t30.5-12.5v0h85q18 0 30.5 12.5t12.5 30.5v0 170h128l213-170v682l-213-170zM640 294l-85 69h-384v170h384l85 69v-308zM917 448q0-55-28.5-101t-77.5-70v342q49-24 77.5-70.5t28.5-100.5v0z" />
<glyph unicode="&#xe901;" glyph-name="uniE901" d="M853 192q36 0 61 25t25 60v427q0 35-25 60t-61 25h-682q-36 0-61-25t-25-60v-427q0-35 25-60t61-25h-171v-85h1024v85h-171zM171 704h682v-427h-682v427z" />
<glyph unicode="&#xe902;" glyph-name="uniE902" d="M555 661h-86v-85h86v85zM555 491h-86v-256h86v256zM725 917h-426q-36 0-61-25t-25-60v-768q0-35 25-60t61-25h426q36 0 61 25t25 60v768q0 35-25 60t-61 25zM725 149h-426v598h426v-598z" />
<glyph unicode="&#xe903;" glyph-name="uniE903" d="M811 832q35 0 60-25t25-60v0-598q0-35-25-60t-60-25v0h-598q-35 0-60 25t-25 60v0 598q0 35 25 60t60 25v0h179q13 37 45.5 61t74.5 24 74.5-24 45.5-61h179zM512 832q-18 0-30.5-12.5t-12.5-30.5v0q0-17 12.5-29.5t30.5-12.5v0q18 0 30.5 12.5t12.5 29.5v0q0 18-12.5 30.5t-30.5 12.5v0zM299 661v86h-86v-598h598v598h-86v-86h-426zM512 576q35 0 60-25t25-60v0q0-36-25-61t-60-25v0q-35 0-60 25t-25 61v0q0 35 25 60t60 25v0zM341 235v42q0 36 50 61t121 25 121-25 50-61v-42h-342z" />
<glyph unicode="&#xe904;" glyph-name="uniE904" d="M128 384l-32 64h224l-26 64h-209l-32 64h333l-25 64h-314l-36 64h160q0 35 25 60t60 25v0h512v-170h128l128-171v-213h-85q0-53-37.5-90.5t-90.5-37.5v0q-53 0-90.5 37.5t-37.5 90.5v0h-171q0-53-37.5-90.5t-90.5-37.5v0q-53 0-90.5 37.5t-37.5 90.5v0h-85v149h-43zM811 171q26 0 45 18.5t19 45.5v0q0 26-19 45t-45 19v0q-27 0-45.5-19t-18.5-45v0q0-27 18.5-45.5t45.5-18.5v0zM875 555h-107v-107h190l-83 107zM384 171q27 0 45.5 18.5t18.5 45.5v0q0 26-18.5 45t-45.5 19v0q-27 0-45.5-19t-18.5-45v0q0-27 18.5-45.5t45.5-18.5v0z" />
<glyph unicode="&#xe905;" glyph-name="uniE905" d="M512 875q-88 0-166-34-77-34-135-92t-92-135q-34-78-34-166t34-166q34-77 92-135t135-92q78-34 166-34t166 34q77 34 135 92t92 135q34 78 34 166t-34 166q-34 77-92 135t-135 92q-78 34-166 34v0zM512 107q-70 0-133 27-62 27-108 73t-73 108q-27 63-27 133t27 133q27 62 73 108t108 73q63 27 133 27t133-27q62-27 108-73t73-108q27-63 27-133t-27-133q-27-62-73-108t-108-73q-63-27-133-27zM525 486q-58 16-78 31.5t-20 41.5 24 43 65 17q42 0 61.5-20.5t19.5-52.5h73q-3 42-29.5 78.5t-77.5 49.5v73h-98v-73q-48-9-81.5-40t-33.5-79q0-58 43.5-89.5t114.5-47.5q61-16 79.5-35.5t18.5-45.5q0-16-17.5-38t-72.5-22q-51 0-73 20t-25 49h-77q4-55 40-87t84-41v-69h98v73q48 9 81.5 38.5t33.5 80.5q4 68-46 98.5t-107 46.5v0z" />
<glyph unicode="&#xe906;" glyph-name="uniE906" d="M511 112q-34-12-66 3t-44 48q-13 33 2.5 65t48.5 44 65-3 44-48q13-33-2-65t-48-44zM422 352q-66-24-96-88t-6-131q25-66 89.5-95.5t130.5-5.5 96 88 6 130q-25 67-89 96.5t-131 5.5zM680 765l-280-104 59-159 280 103zM867 379l-204-75q5-9 10-18.5t8-20.5q4-10 6.5-20.5t4.5-20.5l204 75zM834 594l-361-132 21-57q40-3 76.5-20t64.5-46l258 94zM85 875v-86h132l152-416q9 6 19 10.5t20 8.5 20.5 6.5 20.5 4.5l-172 472h-192z" />
<glyph unicode="&#xe907;" glyph-name="uniE907" d="M896 256q0-12-6-22t-17-16l-337-189q-5-4-11-6t-13-2-13 2-11 6l-337 189q-11 6-17 16t-6 22v384q0 12 6 22t17 16l337 189q5 4 11 6t13 2 13-2 11-6l337-189q11-6 17-16t6-22v-384zM512 783l-81-46 252-144 83 47-254 143zM258 640l254-143 84 47-251 145-87-49zM213 281l256-144v286l-256 144v-286zM811 281v286l-256-144v-286z" />
<glyph unicode="&#xe908;" glyph-name="uniE908" d="M512 875q-88 0-166-34-78-33-136-91t-91-136q-34-78-34-166t34-166q33-78 91-136t136-91q78-34 166-34t166 34q78 33 136 91t91 136q34 78 34 166t-34 166q-33 78-91 136t-136 91q-78 34-166 34v0zM314 171q42 30 92 47t106 17 106-17 92-47q-42-30-92-47t-106-17-106 17-92 47zM774 230v0q-54 42-121 66t-141 24-141-24-121-66v0q-37 44-58 100t-21 118q0 71 26 133 27 62 73.5 108.5t108.5 73.5q62 26 133 26t133-26q62-27 108.5-73.5t73.5-108.5q26-62 26-133 0-62-21-118t-58-100zM512 704q-62 0-105.5-44t-43.5-105q0-62 43.5-106t105.5-44 105.5 44 43.5 106q0 61-43.5 105t-105.5 44zM512 491q-27 0-45.5 18.5t-18.5 45.5q0 26 18.5 45t45.5 19 45.5-19 18.5-45q0-27-18.5-45.5t-45.5-18.5z" />
<glyph unicode="&#xe909;" glyph-name="uniE909" d="M926 588q40 40 31 82t-31 64l-128 128q-40 40-81.5 31t-64.5-31l-72-73h-111q-60 0-97-27.5t-55-63.5l-189-190v-171l-30-29q-40-41-31-82.5t31-63.5l128-128q17-18 35-25t36-7q23 0 42.5 9.5t32.5 22.5l115 115h153q54 0 83.5 28.5t38.5 61.5q37 10 57.5 34t28.5 51q49 13 70 52t21 72v128h-26l13 12zM853 448q0-14-8-28.5t-34-14.5h-43v-42q0-15-8.5-29t-34.5-14h-42v-43q0-14-8.5-28t-34.5-14h-188l-140-140q-10-10-16-7t-10 6l-127 127q-10 10-7 16.5t6 9.5l55 56v170l86 86v-68q0-39 28.5-83.5t99.5-44.5q70 0 99 44.5t29 83.5h298v-43zM866 649l-73-73h-324v-85q0-15-8-29t-34-14-34.5 14-8.5 29v128q0 14 13.5 49.5t71.5 35.5h146l97 97q10 10 16 7t10-6l127-127q10-10 7-16.5t-6-9.5v0z" />
<glyph unicode="&#xe90a;" glyph-name="uniE90A" d="M256 149h85v-85h-85v85zM512 832l-427-213v-555h86v341h682v-341h86v555l-427 213zM341 491h-170v85h170v-85zM597 491h-170v85h170v-85zM853 491h-170v85h170v-85zM256 320h85v-85h-85v85zM427 320h85v-85h-85v85zM427 149h85v-85h-85v85zM597 149h86v-85h-86v85z" />
<glyph unicode="&#xe90b;" glyph-name="uniE90B" d="M913 466l-384 384q-11 11-26.5 18t-33.5 7h-298q-36 0-61-25t-25-61v-298q0-18 7-33.5t19-27.5l384-384q11-11 26.5-18t33.5-7q17 0 32.5 7t27.5 19l298 298q12 12 19 27.5t7 32.5q0 18-7 33.5t-19 27.5v0zM555 106l-384 385v298h298v1l384-384-298-300zM341 683q0-27-18.5-45.5t-45.5-18.5q-26 0-45 18.5t-19 45.5q0 26 19 45t45 19q27 0 45.5-19t18.5-45z" />
<glyph unicode="&#xe90c;" glyph-name="uniE90C" d="M299 875h426q36 0 61-25t25-61v0-682q0-36-25-61t-61-25v0h-426q-36 0-61 25t-25 61v0 682q0 36 25 61t61 25v0 0zM299 789v-170h426v170h-426zM299 533v-85h85v85h-85zM469 533v-85h86v85h-86zM640 533v-85h85v85h-85zM299 363v-86h85v86h-85zM469 363v-86h86v86h-86zM640 363v-86h85v86h-85zM299 192v-85h85v85h-85zM469 192v-85h86v85h-86zM640 192v-85h85v85h-85z" />
<glyph unicode="&#xe90d;" glyph-name="uniE90D" d="M683 875q-44 0-83-17t-68-46-46-68-17-83 17-83 46-67.5 68-45.5 83-17 83 17 67.5 45.5 45.5 67.5 17 83-17 83-45.5 68-67.5 46-83 17v0zM683 533q-53 0-90.5 37.5t-37.5 90.5 37.5 90.5 90.5 37.5 90.5-37.5 37.5-90.5-37.5-90.5-90.5-37.5zM811 277h-86q0 39-22 70.5t-57 45.5l-263 98h-340v-470h256v62l298-83 342 107v42q0 53-37.5 90.5t-90.5 37.5v0zM213 107h-85v298h85v-298zM596 89l-297 82v234h68l249-92q11-4 17.5-14t6.5-22l-44.5 2t-53.5 5l-102 33-27-81 102-33q16-6 33-8.5t34-2.5h229q12 0 22.5-7t15.5-17l-253-79z" />
<glyph unicode="&#xe90e;" glyph-name="uniE90E" d="M896 619v85h-597v-85h597zM896 277v214h-597v-214h597zM896 789q35 0 60-25t25-60v0-427q0-35-25-60t-60-25v0h-597q-36 0-61 25t-25 60v427q0 36 25 60.5t61 24.5h597zM128 107h640v-86h-640q-35 0-60 25t-25 61v0 469h85v-469z" />
<glyph unicode="&#xe90f;" glyph-name="uniE90F" d="M829 406q1 10 2 20.5t1 21.5-1 21.5-2 20.5l90 70q6 5 7.5 12.5t-2.5 15.5l-85 147q-3 5-8 8t-11 3q-2 0-4-0.5t-3-0.5l-106-43q-17 13-35 23.5t-38 18.5l-16 113q-1 7-7 12.5t-14 5.5h-170q-8 0-14-5.5t-7-12.5l-16-113q-20-8-38-19t-35-23l-106 43q-2 0-4 0.5t-3 0.5q-6 0-11-3t-8-8l-85-147q-4-8-2.5-15.5t7.5-12.5l90-70q-1-10-2-20.5t-1-21.5 1-21.5 2-20.5l-90-70q-6-5-7.5-12.5t2.5-15.5l85-147q3-5 8-8t11-3q2 0 4 0.5t3 0.5l106 43q17-13 35-23.5t38-18.5l16-113q1-7 7-12.5t14-5.5h170q8 0 14 5.5t7 12.5l16 113q20 8 38 19t35 23l106-43q2 0 4-0.5t3-0.5q6 0 11 3t8 8l85 147q4 8 2.5 15.5t-7.5 12.5l-90 70zM745 479q1-10 1.5-17t0.5-14-1-14.5-1-16.5l-6-48 38-30 46-36-30-52-54 22-45 18-38-29q-14-10-27-18t-27-13l-45-19-7-48-8-57h-60l-8 57-7 48-45 19q-14 6-27 13.5t-26 16.5l-38 30-46-18-54-22-30 52 46 35 38 30-6 48q0 10-1 18t-1 14 1 14 1 17l6 48-38 30-46 36 30 52 54-22 45-18 38 29q14 10 27 18t27 13l45 19 7 48 8 57h59l9-57 6-48 46-19q13-6 26-13.5t26-16.5l39-30 45 18 54 22 30-52-45-36-38-30 6-48zM512 619q-71 0-121-50t-50-121 50-121 121-50 121 50 50 121-50 121-121 50v0zM512 363q-35 0-60 25t-25 60 25 60 60 25 60-25 25-60-25-60-60-25z" />
<glyph unicode="&#xe910;" glyph-name="uniE910" d="M512 21q35 0 60 25t25 61h-170q0-36 25-61t60-25v0zM768 277v214q0 49-13 93t-37.5 79.5-59.5 60.5q-36 25-82 36v29q0 27-18.5 45.5t-45.5 18.5-45.5-18.5-18.5-45.5v-29q-46-11-81-36-36-25-60.5-60.5t-37.5-79.5-13-93v-214l-85-85v-43h682v43l-85 85zM683 235h-342v256q0 79 45.5 135.5t125.5 56.5 125.5-56.5 45.5-135.5v-256z" />
<glyph unicode="&#xe911;" glyph-name="uniE911" d="M469 192h86v85h-86v-85zM512 875q-88 0-166-34-78-33-136-91t-91-136q-34-78-34-166t34-166q33-78 91-136t136-91q78-34 166-34t166 34q78 33 136 91t91 136q34 78 34 166t-34 166q-33 78-91 136t-136 91q-78 34-166 34v0zM512 107q-71 0-133 27-62 26-108.5 72.5t-72.5 108.5q-27 62-27 133t27 133q26 62 72.5 108.5t108.5 72.5q62 27 133 27t133-27q62-26 108.5-72.5t72.5-108.5q27-62 27-133t-27-133q-26-62-72.5-108.5t-108.5-72.5q-62-27-133-27zM512 704q-71 0-121-50t-50-121h86q0 36 25 61t60 25 60-25 25-61q0-64-64-86.5t-64-126.5h86q0 72 64 102.5t64 110.5q0 71-50 121t-121 50v0z" />
<glyph unicode="&#xe912;" glyph-name="uniE912" d="M128 192h768v85h-768v-85zM128 405h768v86h-768v-86zM128 704v-85h768v85h-768z" />
<glyph unicode="&#xe913;" glyph-name="uniE913" d="M512 683q44 0 75.5-31.5t31.5-75.5v0q0-44-31.5-75.5t-75.5-31.5v0q-44 0-75.5 31.5t-31.5 75.5v0q0 44 31.5 75.5t75.5 31.5v0 0zM512 875q62 0 116-24 55-23 95.5-63.5t63.5-95.5q24-54 24-116v0q0-84-47-181t-103-180-102-139l-47-55-47 55q-46 56-102 139t-103 180-47 181q0 62 24 116 23 55 63.5 95.5t95.5 63.5q54 24 116 24v0 0zM512 789q-44 0-83-16-39-17-68-46t-46-68q-16-39-16-83v0q0-16 3-42 3-27 23-74t64-119q43-72 123-179 80 107 123 179 44 72 64 119t23 74q3 26 3 42 0 44-16 83-17 39-46 68t-68 46q-39 16-83 16v0z" />
<glyph unicode="&#xe914;" glyph-name="uniE914" d="M811 747v-86h-171v86h171zM384 747v-256h-171v256h171zM811 405v-256h-171v256h171zM384 235v-86h-171v86h171zM896 832h-341v-256h341v256zM469 832h-341v-427h341v427zM896 491h-341v-427h341v427zM469 320h-341v-256h341v256z" />
<glyph unicode="&#xe915;" glyph-name="uniE915" d="M751 823h-68v-204q0-13-11-23.5t-23-10.5h-308q-12 0-23 10.5t-11 23.5v204h-102q-29 0-48.5-19.5t-19.5-48.5v-614q0-29 19.5-48.5t48.5-19.5h614q29 0 48.5 19.5t19.5 48.5v546l-136 136zM751 141h-478v205q0 28 20 48t48 20h342q28 0 48-20t20-48v-205zM614 823h-68v-170h68v170z" />
<glyph unicode="&#xe916;" glyph-name="uniE916" d="M384 269l-179 179-60-60 239-239 512 512-60 60-452-452z" />
<glyph unicode="&#xe917;" glyph-name="uniE917" d="M512 704l321-555h-642zM512 875l-469-811h938l-469 811zM555 277h-86v-85h86v85zM555 533h-86v-170h86v170z" />
<glyph unicode="&#xe918;" glyph-name="uniE918" d="M469 320h86v-85h-86v85zM469 661h86v-256h-86v256zM512 875q-89 0-166-34-78-33-136-91t-91-136q-34-78-34-166t34-166q33-78 91-136t136-91q77-34 166-34 88 0 166 34 78 33 136 91t91 136q34 78 34 166t-34 166q-33 78-91 136t-136 91q-78 34-166 34v0zM512 107q-71 0-133 26-62 27-108.5 73.5t-73.5 108.5q-26 62-26 133t26 133q27 62 73.5 108.5t108.5 73.5q62 26 133 26t133-26q62-27 108.5-73.5t73.5-108.5q26-62 26-133t-26-133q-27-62-73.5-108.5t-108.5-73.5q-62-26-133-26z" />
<glyph unicode="&#xe919;" glyph-name="uniE919" d="M853 448l-60 60-238-238v519h-86v-519l-238 239-60-61 341-341 341 341z" />
<glyph unicode="&#xe91a;" glyph-name="uniE91A" d="M853 491h-519l239 238-61 60-341-341 341-341 60 60-238 238h519v86z" />
<glyph unicode="&#xe91b;" glyph-name="uniE91B" d="M512 789l-60-60 238-238h-519v-86h519l-238-238 60-60 341 341-341 341z" />
<glyph unicode="&#xe91c;" glyph-name="uniE91C" d="M171 448l60-60 238 238v-519h86v519l238-239 60 61-341 341-341-341z" />
<glyph unicode="&#xe91d;" glyph-name="uniE91D" d="M708 593l-196-195-196 195-60-60 256-256 256 256z" />
<glyph unicode="&#xe91e;" glyph-name="uniE91E" d="M657 644l-60 60-256-256 256-256 60 60-195 196 195 196z" />
<glyph unicode="&#xe91f;" glyph-name="uniE91F" d="M427 704l-60-60 195-196-195-196 60-60 256 256-256 256z" />
<glyph unicode="&#xe920;" glyph-name="uniE920" d="M512 619l-256-256 60-60 196 195 196-195 60 60z" />
<glyph unicode="&#xe921;" glyph-name="uniE921" d="M299 533l213-213 213 213h-426z" />
<glyph unicode="&#xe922;" glyph-name="uniE922" d="M597 661l-213-213 213-213v426z" />
<glyph unicode="&#xe923;" glyph-name="uniE923" d="M427 235l213 213-213 213v-426z" />
<glyph unicode="&#xe924;" glyph-name="uniE924" d="M299 363l213 213 213-213h-426z" />
<glyph unicode="&#xe925;" glyph-name="uniE925" d="M239 644l195-196-195-196 60-60 256 256-256 256-60-60zM683 704h85v-512h-85v512z" />
<glyph unicode="&#xe926;" glyph-name="uniE926" d="M785 252l-195 196 195 196-60 60-256-256 256-256zM256 704h85v-512h-85v512z" />
<glyph unicode="&#xe927;" glyph-name="uniE927" d="M811 576h-171v256h-256v-256h-171l299-299 299 299zM213 192v-85h598v85h-598z" />
<glyph unicode="&#xe928;" glyph-name="uniE928" d="M384 277h256v256h171l-299 299-299-299h171v-256zM213 192h598v-85h-598v85z" />
<glyph unicode="&#xe929;" glyph-name="uniE929" d="M384 747h85v-86h-85v86zM555 747h85v-86h-85v86zM384 576h85v-85h-85v85zM555 576h85v-85h-85v85zM384 405h85v-85h-85v85zM555 405h85v-85h-85v85zM384 235h85v-86h-85v86zM555 235h85v-86h-85v86z" />
<glyph unicode="&#xe933;" glyph-name="uniE933" d="M753 689q-46 46-108 73t-133 27-133-26q-62-27-108-73.5t-73-108.5-27-133 27-133 73-108.5 108-73.5q62-26 133-26 60 0 113 19 54 19 97.5 53.5t74.5 81.5q31 46 45 102h-89q-13-38-37-69-23-31-54.5-54t-69.5-35q-38-13-80-13-53 0-100 20-46 20-81 55t-55 81q-20 47-20 100t20 100q20 46 55 81t81 55q47 20 100 20t99-20.5 81-55.5l-137-137h298v298l-100-100z" />
<glyph unicode="&#xe934;" glyph-name="uniE934" d="M512 875q-88 0-166-34-78-33-136-91t-91-136q-34-78-34-166t34-166q33-78 91-136t136-91q78-34 166-34t166 34q78 33 136 91t91 136q34 78 34 166t-34 166q-33 78-91 136t-136 91q-78 34-166 34v0zM555 149h-86v86h86v-86zM643 480l-38-39q-23-24-36.5-48.5t-13.5-72.5h-86v21q0 36 13.5 67t36.5 54l53 54q12 11 18.5 26.5t6.5 33.5q0 35-25 60t-60 25-60-25-25-60h-86q0 71 50 121t121 50 121-50 50-121q0-28-11-53t-29-43v0z" />
<glyph unicode="&#xe935;" glyph-name="uniE935" d="M661 363h-33l-12 11q31 37 49 83t18 98q0 57-22 108-22 50-59.5 87.5t-88.5 59.5q-50 22-108 22-57 0-108-22-50-22-87.5-59.5t-59.5-87.5q-22-51-22-108 0-58 22-108 22-51 59.5-88.5t87.5-59.5q51-22 108-22 52 0 98 18t83 49l11-12v-33l214-213 63 63-213 214zM405 363q-79 0-135.5 56t-56.5 136q0 79 56.5 135.5t135.5 56.5q80 0 136-56.5t56-135.5q0-80-56-136t-136-56v0z" />
<glyph unicode="&#xe936;" glyph-name="uniE936" d="M811 149h-598v598h299v85h-299q-35 0-60-25t-25-60v-598q0-35 25-60t60-25h598q35 0 60 25t25 60v299h-85v-299zM597 832v-85h154l-420-420 60-60 420 420v-154h85v299h-299z" />
<glyph unicode="&#xe937;" glyph-name="uniE937" d="M640 917h-256v-85h256v85zM469 363h86v256h-86v-256zM812 645l61 60q-14 17-29 32t-32 28l-60-60q-50 40-111 62t-129 22q-80 0-149-30-70-30-122.5-82t-82.5-122-30-150q0-79 30-149t82-122 122-82q70-31 150-31t150 31q70 30 122 82t82 122 30 149q0 68-22.5 129t-61.5 111zM512 107q-62 0-116 23-55 24-95.5 64.5t-63.5 94.5q-24 54-24 116t24 117q23 54 63.5 94.5t95.5 64.5q54 23 116 23t116-23q55-24 95.5-64.5t63.5-94.5q24-55 24-117t-24-116q-23-54-63.5-94.5t-95.5-64.5q-54-23-116-23v0z" />
<glyph unicode="&#xe938;" glyph-name="uniE938" d="M683 576v-427h-342v427h342zM619 832h-214l-42-43h-150v-85h598v85h-150zM768 661h-512v-512q0-35 25-60t60-25h342q35 0 60 25t25 60v512z" />
<glyph unicode="&#xe939;" glyph-name="uniE939" d="M811 789h-150l-42 43h-214l-42-43h-150v-85h598v85zM256 149q0-35 25-60t60-25v0h342q35 0 60 25t25 60v0 512h-512v-512z" />
<glyph unicode="&#xe93a;" glyph-name="uniE93A" d="M85 735l55 54 713-713-54-55-62 63q-11-10-24.5-15t-29.5-5h-342q-35 0-60 25t-25 60v415l-171 171zM341 149h330l-330 330v-330zM768 661v-391l-85 85v221h-221l-86 85h392zM661 789h150v-85h-477l-86 85h115l42 43h214l42-43z" />
<glyph unicode="&#xe93b;" glyph-name="uniE93B" d="M85 735l55 54 713-713-54-55-62 63q-11-10-24.5-15t-29.5-5h-342q-35 0-60 25t-25 60v415l-171 171zM811 789v-85h-477l-86 85h115l42 43h214l42-43h150zM768 661v-391l-392 391h392z" />
<glyph unicode="&#xe93c;" glyph-name="uniE93C" d="M600 575l39-39-386-387h-40v40l387 386zM753 832q-8 0-15.5-3t-13.5-9l-78-78 160-160 78 78q12 12 12 29.5t-12 30.5l-100 100q-7 6-14.5 9t-16.5 3zM600 696l-472-472v-160h160l472 472z" />
<glyph unicode="&#xe93d;" glyph-name="uniE93D" d="M128 224v-160h160l472 472-160 160-472-472zM884 660q12 12 12 29.5t-12 30.5l-100 100q-13 12-30.5 12t-29.5-12l-78-78 160-160z" />
<glyph unicode="&#xe93e;" glyph-name="uniE93E" d="M725 661h-170v-85h170q53 0 90.5-37.5t37.5-90.5-37.5-90.5-90.5-37.5h-170v-85h170q44 0 83 16 39 17 68 46t46 68 17 83-17 83-46 68-68 46q-39 16-83 16v0zM469 320h-170q-53 0-90.5 37.5t-37.5 90.5 37.5 90.5 90.5 37.5h170v85h-170q-44 0-83-16-39-17-68-46t-46-68-17-83 17-83 46-68 68-46q39-16 83-16h170v85zM341 491h342v-86h-342v86z" />
<glyph unicode="&#xe93f;" glyph-name="uniE93F" d="M614 491l69-69v69h-69zM725 661h-170v-81h170q55 0 94-38.5t39-93.5q0-41-22.5-73.5t-57.5-47.5l60-60q45 28 73 76t28 105q0 44-17 83t-46 68-68 46q-39 16-83 16v0zM85 778l133-133q-58-24-95.5-77t-37.5-120q0-44 17-83t46-68 68-46q39-16 83-16h170v81h-170q-55 0-94 38.5t-39 93.5q0 51 34.5 88.5t83.5 42.5l88-88h-31v-86h117l97-97v-73h73l172-171 60 60-715 714-60-60z" />
<glyph unicode="&#xe940;" glyph-name="uniE940" d="M512 619q35 0 60 25t25 60-25 60-60 25-60-25-25-60 25-60 60-25v0zM512 533q-35 0-60-25t-25-60 25-60 60-25 60 25 25 60-25 60-60 25v0zM512 277q-35 0-60-25t-25-60 25-60 60-25 60 25 25 60-25 60-60 25z" />
<glyph unicode="&#xe941;" glyph-name="uniE941" d="M256 533q-35 0-60-25t-25-60 25-60 60-25 60 25 25 60-25 60-60 25v0zM768 533q-35 0-60-25t-25-60 25-60 60-25 60 25 25 60-25 60-60 25v0zM512 533q-35 0-60-25t-25-60 25-60 60-25 60 25 25 60-25 60-60 25v0z" />
<glyph unicode="&#xe942;" glyph-name="uniE942" d="M427 192h170v85h-170v-85zM128 704v-85h768v85h-768zM256 405h512v86h-512v-86z" />
<glyph unicode="&#xe943;" glyph-name="uniE943" d="M811 405h-256v-256h-86v256h-256v86h256v256h86v-256h256v-86z" />
<glyph unicode="&#xe944;" glyph-name="uniE944" d="M811 405h-598v86h598v-86z" />
<glyph unicode="&#xe945;" glyph-name="uniE945" d="M683 917h-512q-36 0-61-25t-25-60v-597h86v597h512v85zM811 747h-470q-35 0-60-25t-25-61v-597q0-35 25-60t60-25h470q35 0 60 25t25 60v597q0 36-25 61t-60 25v0zM811 64h-470v597h470v-597z" />
<glyph unicode="&#xe946;" glyph-name="uniE946" d="M811 687l-60 60-239-239-239 239-60-60 239-239-239-239 60-60 239 239 239-239 60 60-239 239 239 239z" />
<glyph unicode="&#xe947;" glyph-name="uniE947" d="M512 875q-88 0-166-34-78-33-136-91t-91-136q-34-78-34-166t34-166q33-78 91-136t136-91q78-34 166-34t166 34q78 33 136 91t91 136q34 78 34 166t-34 166q-33 78-91 136t-136 91q-78 34-166 34v0zM512 107q-71 0-133 27-62 26-108.5 72.5t-72.5 108.5q-27 62-27 133t27 133q26 62 72.5 108.5t108.5 72.5q62 27 133 27t133-27q62-26 108.5-72.5t72.5-108.5q27-62 27-133t-27-133q-26-62-72.5-108.5t-108.5-72.5q-62-27-133-27zM665 661l-153-153-153 153-60-60 153-153-153-153 60-60 153 153 153-153 60 60-153 153 153 153z" />
<glyph unicode="&#xe948;" glyph-name="uniE948" d="M725 832h-426q-36 0-61-25t-25-60v-683l299 128 299-128v683q0 35-25 60t-61 25v0zM725 192l-213 93-213-93v555h426v-555z" />
<glyph unicode="&#xe949;" glyph-name="uniE949" d="M725 832h-426q-36 0-61-25t-25-60v-683l299 128 299-128v683q0 35-25 60t-61 25v0z" />
<glyph unicode="&#xe94a;" glyph-name="uniE94A" d="M469 661h86v-85h-86v85zM469 491h86v-256h-86v256zM512 875q-88 0-166-34-78-33-136-91t-91-136q-34-78-34-166t34-166q33-78 91-136t136-91q78-34 166-34t166 34q78 33 136 91t91 136q34 78 34 166t-34 166q-33 78-91 136t-136 91q-78 34-166 34v0zM512 107q-71 0-133 27-62 26-108.5 72.5t-72.5 108.5q-27 62-27 133t27 133q26 62 72.5 108.5t108.5 72.5q62 27 133 27t133-27q62-26 108.5-72.5t72.5-108.5q27-62 27-133t-27-133q-26-62-72.5-108.5t-108.5-72.5q-62-27-133-27z" />
<glyph unicode="&#xe94b;" glyph-name="uniE94B" d="M811 789h-43v86h-85v-86h-342v86h-85v-86h-43q-35 0-60-25t-25-60v-597q0-36 25-61t60-25h598q35 0 60 25t25 61v597q0 35-25 60t-60 25v0zM811 107h-598v426h598v-426zM811 619h-598v85h598v-85zM512 405h213v-213h-213v213z" />
<glyph unicode="&#xe94c;" glyph-name="uniE94C" d="M512 448q71 0 121 50t50 121q0 70-50 120t-121 50-121-50-50-120q0-71 50-121t121-50zM512 363q-43 0-101-11-59-11-112.5-32t-90.5-53-37-75v-85h682v85q0 43-37 75t-90.5 53-112.5 32q-58 11-101 11v0z" />
<glyph unicode="&#xe94d;" glyph-name="uniE94D" d="M512 708q37 0 63.5-26t26.5-63-26.5-63.5-63.5-26.5-63.5 26.5-26.5 63.5 26.5 63 63.5 26zM512 324q48 0 94-10 47-10 84-24.5t59-29.5q23-15 23-25v-47h-520v47q0 10 23 25 22 15 59 29.5t84 24.5q46 10 94 10v0zM512 789q-71 0-121-50t-50-120q0-71 50-121t121-50 121 50 50 121q0 70-50 120t-121 50v0zM512 405q-43 0-101-10-59-11-112.5-32.5t-90.5-53.5-37-74v-128h682v128q0 42-37 74t-90.5 53.5-112.5 32.5q-58 10-101 10v0z" />
<glyph unicode="&#xe94e;" glyph-name="uniE94E" d="M512 49l-62 56q-82 75-150 139-67 63-114.5 121.5t-74.5 114.5q-26 57-26 117 0 50 19 92 18 43 49.5 75t74.5 50 92 18q56 0 106.5-24t85.5-65q35 41 85.5 65t106.5 24q49 0 92-18t74.5-50 49.5-75q19-42 19-92 0-60-26-117-27-56-74.5-114.5t-114.5-122.5q-68-63-150-138l-62-56z" />
<glyph unicode="&#xe94f;" glyph-name="uniE94F" d="M704 832q-56 0-106.5-24t-85.5-65q-35 41-85.5 65t-106.5 24q-49 0-92-18t-74.5-50-49.5-75q-19-42-19-92 0-60 26-117 27-56 74.5-114.5t114.5-122.5q68-63 150-138l62-56 62 56q82 75 150 139 67 63 114.5 121.5t74.5 114.5q26 57 26 117 0 50-19 92-18 43-49.5 75t-74.5 50-92 18v0zM516 169l-4-5-4 5q-76 68-139 127-62 58-106 109.5t-68 98.5-24 93q0 64 42.5 107t106.5 43q49 0 92-28.5t60-72.5h80q17 44 60 72.5t92 28.5q64 0 106.5-43t42.5-107q0-46-24-93t-68-98.5-106-109.5q-63-59-139-127v0z" />
<glyph unicode="&#xe950;" glyph-name="uniE950" d="M427 107v256h170v-256h214v341h128l-427 384-427-384h128v-341h214z" />
<glyph unicode="&#xe951;" glyph-name="uniE951" d="M512 768q-80 0-153-24-73-23-134-65.5t-108-101.5-74-129q27-70 74-129t108-101.5 134-65.5q73-24 153-24t153 24q73 23 134 65.5t108 101.5 74 129q-27 70-74 129t-108 101.5-134 65.5q-73 24-153 24zM512 235q-44 0-83 16-39 17-68 46t-46 68q-16 39-16 83t16 83q17 39 46 68t68 46q39 16 83 16t83-16q39-17 68-46t46-68q16-39 16-83t-16-83q-17-39-46-68t-68-46q-39-16-83-16zM512 576q-53 0-90.5-37.5t-37.5-90.5 37.5-90.5 90.5-37.5 90.5 37.5 37.5 90.5-37.5 90.5-90.5 37.5z" />
<glyph unicode="&#xe952;" glyph-name="uniE952" d="M512 661q44 0 83-16 39-17 68-46t46-68q16-39 16-83 0-21-4-40.5t-11-37.5l125-125q48 41 85.5 92t60.5 111q-28 70-75 129-46 59-107.5 101.5t-133.5 65.5q-73 24-153 24-45 0-88-7.5t-82-22.5l92-92q18 7 37.5 11t40.5 4v0zM85 778l117-117q-53-41-93.5-95.5t-65.5-117.5q27-70 74-129t108-101.5 134-65.5q73-24 153-24 50 0 97 9.5t90 26.5l143-143 54 55-756 756-55-54zM321 542l66-66-2-14t-1-14q0-53 37.5-90.5t90.5-37.5q7 0 14 1l14 2 66-66q-22-10-45.5-16t-48.5-6q-44 0-83 16-39 17-68 46t-46 68q-16 39-16 83 0 25 6 48.5t16 45.5v0zM505 575l135-134v7q0 53-37 90.5t-91 37.5l-7-1z" />
<glyph unicode="&#xe953;" glyph-name="uniE953" d="M649 21l-205 209 42 43 128-128v337h64v-337l133 128 42-43-204-209zM346 414v337l-128-128-47 47 204 205 205-205-42-43-133 128v-337h-59v-4z" />
<glyph unicode="&#xe954;" glyph-name="uniE954" d="M811 619h-598q-53 0-90.5-37.5t-37.5-90.5v-256h171v-171h512v171h171v256q0 53-37.5 90.5t-90.5 37.5v0zM683 149h-342v214h342v-214zM811 448q-18 0-30.5 12.5t-12.5 30.5q0 17 12.5 29.5t30.5 12.5q17 0 29.5-12.5t12.5-29.5q0-18-12.5-30.5t-29.5-12.5zM768 832h-512v-171h512v171z" />
<glyph unicode="&#xe955;" glyph-name="uniE955" d="M811 619h-43v213h-512v-213h-43q-53 0-90.5-37.5t-37.5-90.5v-256h171v-171h512v171h171v256q0 53-37.5 90.5t-90.5 37.5zM341 747h342v-128h-342v128zM683 235v-86h-342v171h342v-85zM768 320v85h-512v-85h-85v171q0 17 12.5 29.5t29.5 12.5h598q17 0 29.5-12.5t12.5-29.5v-171h-85zM811 469q0-17-12.5-29.5t-30.5-12.5-30.5 12.5-12.5 29.5q0 18 12.5 30.5t30.5 12.5 30.5-12.5 12.5-30.5v0z" />
<glyph unicode="&#xe956;" glyph-name="uniE956" d="M512 917l-171-170h128v-384h86v384h128zM768-21h-512q-36 0-60.5 25t-24.5 60v512q0 35 25 60t60 25v0h128v-85h-128v-512h512v512h-128v85h128q35 0 60-25t25-60v0-512q0-35-25-60t-60-25v0z" />
</font>
</defs>
</svg>
